<mxfile host="app.diagrams.net" agent="Mozilla/5.0 (Windows NT 10.0; Win64; x64) AppleWebKit/537.36 (KHTML, like Gecko) Chrome/130.0.0.0 Safari/537.36" version="24.8.2">
  <diagram name="Page-1" id="Tga3Vdvdu2PAPR9aSvHG">
    <mxGraphModel dx="2292" dy="788" grid="1" gridSize="10" guides="1" tooltips="1" connect="1" arrows="1" fold="1" page="1" pageScale="1" pageWidth="827" pageHeight="1169" math="0" shadow="0">
      <root>
        <mxCell id="0" />
        <mxCell id="1" parent="0" />
        <mxCell id="sQmiEJaSRjYbarwI-9ZD-19" value="" style="group" vertex="1" connectable="0" parent="1">
          <mxGeometry x="209" y="100" width="411" height="460" as="geometry" />
        </mxCell>
        <mxCell id="sQmiEJaSRjYbarwI-9ZD-1" value="" style="rounded=0;whiteSpace=wrap;html=1;" vertex="1" parent="sQmiEJaSRjYbarwI-9ZD-19">
          <mxGeometry width="410" height="460" as="geometry" />
        </mxCell>
        <mxCell id="sQmiEJaSRjYbarwI-9ZD-2" value="" style="rounded=0;whiteSpace=wrap;html=1;fillColor=#f5f5f5;fontColor=#333333;strokeColor=#666666;" vertex="1" parent="sQmiEJaSRjYbarwI-9ZD-19">
          <mxGeometry width="411" height="60" as="geometry" />
        </mxCell>
        <mxCell id="sQmiEJaSRjYbarwI-9ZD-3" value="" style="rounded=0;whiteSpace=wrap;html=1;fillColor=#e3c800;fontColor=#000000;strokeColor=#B09500;" vertex="1" parent="sQmiEJaSRjYbarwI-9ZD-19">
          <mxGeometry x="21" y="15" width="10" height="30" as="geometry" />
        </mxCell>
        <mxCell id="sQmiEJaSRjYbarwI-9ZD-4" value="" style="rounded=0;whiteSpace=wrap;html=1;fillColor=#e3c800;fontColor=#000000;strokeColor=#B09500;" vertex="1" parent="sQmiEJaSRjYbarwI-9ZD-19">
          <mxGeometry x="41" y="15" width="10" height="30" as="geometry" />
        </mxCell>
        <mxCell id="sQmiEJaSRjYbarwI-9ZD-5" value="" style="rounded=0;whiteSpace=wrap;html=1;fillColor=#e3c800;fontColor=#000000;strokeColor=#B09500;" vertex="1" parent="sQmiEJaSRjYbarwI-9ZD-19">
          <mxGeometry x="61" y="15" width="10" height="30" as="geometry" />
        </mxCell>
        <mxCell id="sQmiEJaSRjYbarwI-9ZD-6" value="Deadline" style="rounded=1;whiteSpace=wrap;html=1;arcSize=37;" vertex="1" parent="sQmiEJaSRjYbarwI-9ZD-19">
          <mxGeometry x="301" y="5" width="100" height="50" as="geometry" />
        </mxCell>
        <mxCell id="sQmiEJaSRjYbarwI-9ZD-7" value="Main text for feedback" style="rounded=1;whiteSpace=wrap;html=1;fillColor=#eeeeee;strokeColor=#36393d;" vertex="1" parent="sQmiEJaSRjYbarwI-9ZD-19">
          <mxGeometry x="46" y="100" width="310" height="280" as="geometry" />
        </mxCell>
        <mxCell id="sQmiEJaSRjYbarwI-9ZD-12" value="Name / ticket num" style="rounded=1;whiteSpace=wrap;html=1;arcSize=37;" vertex="1" parent="sQmiEJaSRjYbarwI-9ZD-19">
          <mxGeometry x="121" y="5" width="160" height="50" as="geometry" />
        </mxCell>
        <mxCell id="sQmiEJaSRjYbarwI-9ZD-17" value="" style="group" vertex="1" connectable="0" parent="sQmiEJaSRjYbarwI-9ZD-19">
          <mxGeometry x="11" y="400" width="50" height="50" as="geometry" />
        </mxCell>
        <mxCell id="sQmiEJaSRjYbarwI-9ZD-14" value="" style="ellipse;whiteSpace=wrap;html=1;fillColor=#eeeeee;strokeColor=#36393d;" vertex="1" parent="sQmiEJaSRjYbarwI-9ZD-17">
          <mxGeometry width="50" height="50" as="geometry" />
        </mxCell>
        <mxCell id="sQmiEJaSRjYbarwI-9ZD-15" value="" style="sketch=0;pointerEvents=1;shadow=0;dashed=0;html=1;strokeColor=none;fillColor=#505050;labelPosition=center;verticalLabelPosition=bottom;verticalAlign=top;outlineConnect=0;align=center;shape=mxgraph.office.concepts.writing_pencil;" vertex="1" parent="sQmiEJaSRjYbarwI-9ZD-17">
          <mxGeometry x="10" y="10" width="30" height="30" as="geometry" />
        </mxCell>
        <mxCell id="sQmiEJaSRjYbarwI-9ZD-18" value="" style="group" vertex="1" connectable="0" parent="sQmiEJaSRjYbarwI-9ZD-19">
          <mxGeometry x="351" y="400" width="50" height="50" as="geometry" />
        </mxCell>
        <mxCell id="sQmiEJaSRjYbarwI-9ZD-13" value="" style="ellipse;whiteSpace=wrap;html=1;fillColor=#cdeb8b;strokeColor=#36393d;" vertex="1" parent="sQmiEJaSRjYbarwI-9ZD-18">
          <mxGeometry width="50" height="50" as="geometry" />
        </mxCell>
        <mxCell id="sQmiEJaSRjYbarwI-9ZD-16" value="" style="verticalLabelPosition=bottom;verticalAlign=top;html=1;shape=mxgraph.basic.tick;fillColor=#cdeb8b;strokeColor=#36393d;" vertex="1" parent="sQmiEJaSRjYbarwI-9ZD-18">
          <mxGeometry x="10" y="10" width="30" height="30" as="geometry" />
        </mxCell>
        <mxCell id="sQmiEJaSRjYbarwI-9ZD-20" value="" style="group" vertex="1" connectable="0" parent="1">
          <mxGeometry x="650" y="100" width="411" height="460" as="geometry" />
        </mxCell>
        <mxCell id="sQmiEJaSRjYbarwI-9ZD-21" value="" style="rounded=0;whiteSpace=wrap;html=1;" vertex="1" parent="sQmiEJaSRjYbarwI-9ZD-20">
          <mxGeometry width="410" height="460" as="geometry" />
        </mxCell>
        <mxCell id="sQmiEJaSRjYbarwI-9ZD-22" value="" style="rounded=0;whiteSpace=wrap;html=1;fillColor=#f5f5f5;fontColor=#333333;strokeColor=#666666;" vertex="1" parent="sQmiEJaSRjYbarwI-9ZD-20">
          <mxGeometry width="411" height="60" as="geometry" />
        </mxCell>
        <mxCell id="sQmiEJaSRjYbarwI-9ZD-23" value="" style="rounded=0;whiteSpace=wrap;html=1;fillColor=#ffcccc;strokeColor=#36393d;" vertex="1" parent="sQmiEJaSRjYbarwI-9ZD-20">
          <mxGeometry x="21" y="15" width="10" height="30" as="geometry" />
        </mxCell>
        <mxCell id="sQmiEJaSRjYbarwI-9ZD-24" value="" style="rounded=0;whiteSpace=wrap;html=1;fillColor=#ffcccc;strokeColor=#36393d;" vertex="1" parent="sQmiEJaSRjYbarwI-9ZD-20">
          <mxGeometry x="41" y="15" width="10" height="30" as="geometry" />
        </mxCell>
        <mxCell id="sQmiEJaSRjYbarwI-9ZD-25" value="" style="rounded=0;whiteSpace=wrap;html=1;fillColor=#ffcccc;strokeColor=#36393d;" vertex="1" parent="sQmiEJaSRjYbarwI-9ZD-20">
          <mxGeometry x="61" y="15" width="10" height="30" as="geometry" />
        </mxCell>
        <mxCell id="sQmiEJaSRjYbarwI-9ZD-26" value="Deadline" style="rounded=1;whiteSpace=wrap;html=1;arcSize=37;" vertex="1" parent="sQmiEJaSRjYbarwI-9ZD-20">
          <mxGeometry x="301" y="5" width="100" height="50" as="geometry" />
        </mxCell>
        <mxCell id="sQmiEJaSRjYbarwI-9ZD-27" value="Main text for feedback" style="rounded=1;whiteSpace=wrap;html=1;fillColor=#eeeeee;strokeColor=#36393d;" vertex="1" parent="sQmiEJaSRjYbarwI-9ZD-20">
          <mxGeometry x="46" y="100" width="310" height="280" as="geometry" />
        </mxCell>
        <mxCell id="sQmiEJaSRjYbarwI-9ZD-28" value="Name / ticket num" style="rounded=1;whiteSpace=wrap;html=1;arcSize=37;" vertex="1" parent="sQmiEJaSRjYbarwI-9ZD-20">
          <mxGeometry x="121" y="5" width="160" height="50" as="geometry" />
        </mxCell>
        <mxCell id="sQmiEJaSRjYbarwI-9ZD-29" value="" style="group" vertex="1" connectable="0" parent="sQmiEJaSRjYbarwI-9ZD-20">
          <mxGeometry x="11" y="400" width="50" height="50" as="geometry" />
        </mxCell>
        <mxCell id="sQmiEJaSRjYbarwI-9ZD-30" value="" style="ellipse;whiteSpace=wrap;html=1;fillColor=#eeeeee;strokeColor=#36393d;" vertex="1" parent="sQmiEJaSRjYbarwI-9ZD-29">
          <mxGeometry width="50" height="50" as="geometry" />
        </mxCell>
        <mxCell id="sQmiEJaSRjYbarwI-9ZD-31" value="" style="sketch=0;pointerEvents=1;shadow=0;dashed=0;html=1;strokeColor=none;fillColor=#505050;labelPosition=center;verticalLabelPosition=bottom;verticalAlign=top;outlineConnect=0;align=center;shape=mxgraph.office.concepts.writing_pencil;" vertex="1" parent="sQmiEJaSRjYbarwI-9ZD-29">
          <mxGeometry x="10" y="10" width="30" height="30" as="geometry" />
        </mxCell>
        <mxCell id="sQmiEJaSRjYbarwI-9ZD-32" value="" style="group" vertex="1" connectable="0" parent="sQmiEJaSRjYbarwI-9ZD-20">
          <mxGeometry x="351" y="400" width="50" height="50" as="geometry" />
        </mxCell>
        <mxCell id="sQmiEJaSRjYbarwI-9ZD-33" value="" style="ellipse;whiteSpace=wrap;html=1;fillColor=#cdeb8b;strokeColor=#36393d;" vertex="1" parent="sQmiEJaSRjYbarwI-9ZD-32">
          <mxGeometry width="50" height="50" as="geometry" />
        </mxCell>
        <mxCell id="sQmiEJaSRjYbarwI-9ZD-34" value="" style="verticalLabelPosition=bottom;verticalAlign=top;html=1;shape=mxgraph.basic.tick;fillColor=#cdeb8b;strokeColor=#36393d;" vertex="1" parent="sQmiEJaSRjYbarwI-9ZD-32">
          <mxGeometry x="10" y="10" width="30" height="30" as="geometry" />
        </mxCell>
        <mxCell id="sQmiEJaSRjYbarwI-9ZD-35" value="" style="rounded=0;whiteSpace=wrap;html=1;fillColor=#ffcccc;strokeColor=#36393d;" vertex="1" parent="sQmiEJaSRjYbarwI-9ZD-20">
          <mxGeometry x="80" y="15" width="10" height="30" as="geometry" />
        </mxCell>
        <mxCell id="sQmiEJaSRjYbarwI-9ZD-36" value="" style="rounded=0;whiteSpace=wrap;html=1;fillColor=#ffcccc;strokeColor=#36393d;" vertex="1" parent="sQmiEJaSRjYbarwI-9ZD-20">
          <mxGeometry x="100" y="15" width="10" height="30" as="geometry" />
        </mxCell>
        <mxCell id="sQmiEJaSRjYbarwI-9ZD-37" value="" style="group" vertex="1" connectable="0" parent="1">
          <mxGeometry x="-240" y="100" width="411" height="460" as="geometry" />
        </mxCell>
        <mxCell id="sQmiEJaSRjYbarwI-9ZD-38" value="" style="rounded=0;whiteSpace=wrap;html=1;" vertex="1" parent="sQmiEJaSRjYbarwI-9ZD-37">
          <mxGeometry width="410" height="460" as="geometry" />
        </mxCell>
        <mxCell id="sQmiEJaSRjYbarwI-9ZD-39" value="" style="rounded=0;whiteSpace=wrap;html=1;fillColor=#f5f5f5;fontColor=#333333;strokeColor=#666666;" vertex="1" parent="sQmiEJaSRjYbarwI-9ZD-37">
          <mxGeometry width="411" height="60" as="geometry" />
        </mxCell>
        <mxCell id="sQmiEJaSRjYbarwI-9ZD-40" value="" style="rounded=0;whiteSpace=wrap;html=1;fillColor=#cdeb8b;strokeColor=#36393d;" vertex="1" parent="sQmiEJaSRjYbarwI-9ZD-37">
          <mxGeometry x="21" y="15" width="10" height="30" as="geometry" />
        </mxCell>
        <mxCell id="sQmiEJaSRjYbarwI-9ZD-41" value="" style="rounded=0;whiteSpace=wrap;html=1;fillColor=#cdeb8b;strokeColor=#36393d;" vertex="1" parent="sQmiEJaSRjYbarwI-9ZD-37">
          <mxGeometry x="41" y="15" width="10" height="30" as="geometry" />
        </mxCell>
        <mxCell id="sQmiEJaSRjYbarwI-9ZD-42" value="" style="rounded=0;whiteSpace=wrap;html=1;fillColor=#cdeb8b;strokeColor=#36393d;" vertex="1" parent="sQmiEJaSRjYbarwI-9ZD-37">
          <mxGeometry x="61" y="15" width="10" height="30" as="geometry" />
        </mxCell>
        <mxCell id="sQmiEJaSRjYbarwI-9ZD-43" value="Deadline" style="rounded=1;whiteSpace=wrap;html=1;arcSize=37;" vertex="1" parent="sQmiEJaSRjYbarwI-9ZD-37">
          <mxGeometry x="301" y="5" width="100" height="50" as="geometry" />
        </mxCell>
        <mxCell id="sQmiEJaSRjYbarwI-9ZD-44" value="Main text for feedback" style="rounded=1;whiteSpace=wrap;html=1;fillColor=#eeeeee;strokeColor=#36393d;" vertex="1" parent="sQmiEJaSRjYbarwI-9ZD-37">
          <mxGeometry x="46" y="100" width="310" height="280" as="geometry" />
        </mxCell>
        <mxCell id="sQmiEJaSRjYbarwI-9ZD-45" value="Name / ticket num" style="rounded=1;whiteSpace=wrap;html=1;arcSize=37;" vertex="1" parent="sQmiEJaSRjYbarwI-9ZD-37">
          <mxGeometry x="121" y="5" width="160" height="50" as="geometry" />
        </mxCell>
        <mxCell id="sQmiEJaSRjYbarwI-9ZD-46" value="" style="group" vertex="1" connectable="0" parent="sQmiEJaSRjYbarwI-9ZD-37">
          <mxGeometry x="11" y="400" width="50" height="50" as="geometry" />
        </mxCell>
        <mxCell id="sQmiEJaSRjYbarwI-9ZD-47" value="" style="ellipse;whiteSpace=wrap;html=1;fillColor=#eeeeee;strokeColor=#36393d;" vertex="1" parent="sQmiEJaSRjYbarwI-9ZD-46">
          <mxGeometry width="50" height="50" as="geometry" />
        </mxCell>
        <mxCell id="sQmiEJaSRjYbarwI-9ZD-48" value="" style="sketch=0;pointerEvents=1;shadow=0;dashed=0;html=1;strokeColor=none;fillColor=#505050;labelPosition=center;verticalLabelPosition=bottom;verticalAlign=top;outlineConnect=0;align=center;shape=mxgraph.office.concepts.writing_pencil;" vertex="1" parent="sQmiEJaSRjYbarwI-9ZD-46">
          <mxGeometry x="10" y="10" width="30" height="30" as="geometry" />
        </mxCell>
        <mxCell id="sQmiEJaSRjYbarwI-9ZD-49" value="" style="group" vertex="1" connectable="0" parent="sQmiEJaSRjYbarwI-9ZD-37">
          <mxGeometry x="351" y="400" width="50" height="50" as="geometry" />
        </mxCell>
        <mxCell id="sQmiEJaSRjYbarwI-9ZD-50" value="" style="ellipse;whiteSpace=wrap;html=1;fillColor=#cdeb8b;strokeColor=#36393d;" vertex="1" parent="sQmiEJaSRjYbarwI-9ZD-49">
          <mxGeometry width="50" height="50" as="geometry" />
        </mxCell>
        <mxCell id="sQmiEJaSRjYbarwI-9ZD-51" value="" style="verticalLabelPosition=bottom;verticalAlign=top;html=1;shape=mxgraph.basic.tick;fillColor=#cdeb8b;strokeColor=#36393d;" vertex="1" parent="sQmiEJaSRjYbarwI-9ZD-49">
          <mxGeometry x="10" y="10" width="30" height="30" as="geometry" />
        </mxCell>
      </root>
    </mxGraphModel>
  </diagram>
</mxfile>
